# xmcd
#
# Track frame offsets:
#  150
#  9570
#  19745
#  34272
#  44802
#  51082
#  64262
#  73132
#  84662
#  93342
#
# Disc length: 1421 seconds
#
# Revision: 0
# Processed by: cddbd v1.4PL0 Copyright (c) Steve Scherf et al.
# Submitted via: AltoMP3_Maker 3.0
#
DISCID=89058b0a
DTITLE=Various Artist - Boots Randolph Yakety Sax and other Instrumental Classics
DYEAR=1900
DGENRE=
TTITLE0=Yakety Sax
TTITLE1=Down Yonder
TTITLE2=The Entertainer
TTITLE3=Fire on the Mountain
TTITLE4=Cotton Eyed Joe
TTITLE5=Shenandoah
TTITLE6=Maple Leaf Rag
TTITLE7=Church in the Wildwood
TTITLE8=Oh Them Golden Slippers
TTITLE9=Barbara Allen
EXTD=
EXTT0=
EXTT1=
EXTT2=
EXTT3=
EXTT4=
EXTT5=
EXTT6=
EXTT7=
EXTT8=
EXTT9=
PLAYORDER=
